<svg xmlns="http://www.w3.org/2000/svg" width="684" height="364" viewBox="0 0 684 364">
<g>
<path d="M 596.00 274.61 C593.26,276.04 589.78,276.50 580.00,276.73 C563.44,277.10 558.40,275.20 550.54,265.61 C539.56,252.22 541.46,228.47 554.39,217.40 C560.67,212.02 567.41,210.00 579.07,210.00 C588.12,210.00 589.59,210.27 594.78,212.91 C600.43,215.78 605.11,220.02 608.26,225.12 C610.42,228.61 613.00,238.80 613.00,243.81 C613.00,244.22 613.00,244.60 613.01,244.96 C613.03,246.81 613.04,248.10 612.45,249.00 C611.12,251.02 606.71,251.02 592.31,251.00 C591.08,251.00 589.77,251.00 588.39,251.00 C565.11,251.00 565.00,251.01 565.00,253.15 C565.00,254.37 566.76,256.98 569.04,259.15 C572.76,262.70 573.54,263.00 578.79,263.00 C584.72,262.99 590.48,260.53 591.64,257.49 C592.50,255.26 610.00,255.30 610.00,257.54 C610.00,262.26 602.78,271.06 596.00,274.61 ZM 496.50 250.50 L 495.94 276.00 L 476.00 276.00 L 476.00 184.00 L 495.74 184.00 L 496.20 187.75 C496.46,189.81 496.50,200.86 496.29,212.30 L 495.91 233.10 L 498.85 231.58 C500.46,230.74 505.74,225.75 510.58,220.49 L 519.38 210.93 L 528.44 211.21 C536.89,211.48 537.52,211.65 537.81,213.68 C538.40,217.83 533.86,224.25 523.16,234.39 C520.78,236.65 518.19,238.86 517.41,239.30 C515.02,240.65 515.83,242.24 522.56,249.50 C530.74,258.32 539.00,270.42 539.00,273.58 C539.00,275.98 538.92,276.00 528.70,276.00 L 518.40 276.00 L 515.49 271.40 C513.89,268.87 508.97,263.14 504.54,258.65 ZM 452.31 273.03 C446.71,276.43 446.33,276.51 434.54,276.75 C420.58,277.03 417.12,276.11 410.16,270.26 C400.22,261.90 397.17,253.89 398.23,238.98 C399.01,228.08 405.48,218.62 415.68,213.45 C421.20,210.65 422.14,210.50 434.00,210.50 C446.47,210.50 446.51,210.51 451.79,213.86 C454.70,215.71 458.65,219.29 460.58,221.81 C463.48,225.61 464.04,227.12 463.80,230.46 L 463.50 234.50 L 455.08 234.27 C446.80,234.04 446.61,233.98 443.80,230.58 C438.27,223.87 427.00,224.68 421.62,232.17 C414.13,242.61 419.20,258.86 430.48,260.55 C436.80,261.50 439.90,260.44 444.07,255.93 L 447.69 252.00 L 464.25 252.00 L 463.80 256.77 C463.17,263.29 459.27,268.81 452.31,273.03 ZM 660.16 275.75 C659.18,276.55 655.51,276.97 650.06,276.93 C639.94,276.85 634.52,274.86 630.68,269.82 C626.98,264.98 626.05,259.46 626.02,242.25 L 626.00 227.00 L 617.92 227.00 L 618.50 211.50 L 626.00 210.88 L 626.00 197.00 L 646.00 197.00 L 646.00 211.00 L 661.00 211.00 L 661.00 226.91 L 646.50 227.50 L 646.50 240.50 C646.50,247.65 646.83,254.68 647.24,256.12 C648.17,259.44 652.57,261.36 657.26,260.48 L 660.76 259.82 L 661.24 267.16 C661.61,272.98 661.39,274.76 660.16,275.75 ZM 351.42 276.39 C347.79,277.79 333.50,276.95 329.50,275.12 C320.53,271.00 319.10,266.77 319.04,244.25 L 319.00 227.00 L 310.00 227.00 L 310.00 211.00 L 319.00 211.00 L 319.00 196.93 L 338.50 197.50 L 338.79 204.21 L 339.09 210.91 L 345.79 211.21 L 352.50 211.50 L 352.79 219.25 L 353.08 227.00 L 339.00 227.00 L 339.00 241.85 C339.00,259.31 339.33,260.00 347.83,260.00 L 353.00 260.00 L 353.00 267.89 C353.00,274.17 352.68,275.91 351.42,276.39 ZM 384.50 211.50 L 385.03 276.00 L 364.97 276.00 L 365.50 211.50 ZM 79.50 345.90 C77.30,346.50 71.22,346.97 66.00,346.95 C52.39,346.90 47.12,343.61 47.04,335.12 C47.00,331.76 47.02,331.74 50.75,332.38 C52.81,332.73 60.80,333.92 68.50,335.02 C86.72,337.62 87.00,337.70 87.00,339.86 C87.00,342.38 84.25,344.60 79.50,345.90 ZM 242.76 345.02 C239.46,346.52 236.36,346.94 229.00,346.89 C215.51,346.79 209.00,344.50 209.00,339.86 C209.00,337.79 209.79,337.56 222.50,335.97 C227.45,335.36 235.04,334.21 239.36,333.43 C239.81,333.34 240.24,333.27 240.65,333.19 C246.22,332.18 248.09,331.84 248.70,332.56 C249.01,332.92 249.01,333.55 249.00,334.50 C249.00,334.64 249.00,334.78 249.00,334.93 C249.00,340.16 247.25,342.98 242.76,345.02 ZM 383.08 200.08 C377.00,206.16 364.98,202.77 363.44,194.54 C361.66,185.06 372.58,177.69 381.01,182.67 C386.86,186.12 387.94,195.22 383.08,200.08 ZM 564.48 237.98 C564.87,238.59 570.51,239.00 578.69,239.00 L 592.26 239.00 L 591.72 234.92 C591.08,230.20 588.82,227.28 584.28,225.36 C578.12,222.75 570.98,224.40 566.86,229.37 C564.84,231.81 563.55,236.47 564.48,237.98 ZM 262.82 107.29 C263.63,108.26 263.42,108.57 261.94,108.57 C260.88,108.57 260.00,107.99 260.00,107.29 C260.00,106.58 260.39,106.00 260.88,106.00 C261.36,106.00 262.24,106.58 262.82,107.29 Z" fill="rgb(135,133,129)"/>
<path d="M 262.82 107.29 C262.24,106.58 261.36,106.00 260.88,106.00 C260.39,106.00 260.00,106.58 260.00,107.29 C260.00,107.79 260.45,108.23 261.10,108.44 C261.08,108.45 261.06,108.46 261.04,108.47 C259.24,109.59 259.90,113.48 262.50,117.00 C264.67,119.94 264.97,121.31 264.80,127.44 L 264.61 134.50 L 264.25 127.52 C264.02,122.89 263.35,119.94 262.27,118.75 C261.01,117.36 260.46,117.24 259.84,118.23 C259.39,118.93 259.02,134.80 259.00,153.50 C258.98,172.20 258.64,188.00 258.23,188.60 C257.83,189.21 256.52,190.22 255.32,190.85 C253.12,192.00 251.63,192.09 247.00,191.31 C244.77,190.93 238.00,188.22 238.00,187.70 C238.00,187.59 241.21,187.65 245.13,187.84 C250.30,188.08 252.51,187.81 253.12,186.84 C253.59,186.10 253.98,152.00 253.98,111.05 L 254.00 36.60 L 242.70 25.30 C236.49,19.08 231.65,14.00 231.95,14.00 C233.71,14.02 239.67,18.85 248.12,27.10 C255.36,34.19 257.89,37.33 258.37,39.88 C258.71,41.73 259.01,57.03 259.01,73.88 L 259.02 104.50 L 263.26 106.50 C267.11,108.31 272.67,112.92 284.77,124.28 C287.11,126.48 289.31,129.41 289.66,130.78 C290.40,133.73 289.39,152.03 288.03,160.37 C286.96,166.90 285.17,168.92 280.43,168.97 C277.61,169.00 266.86,164.26 264.58,161.98 C262.95,160.35 264.49,160.85 270.84,164.00 C278.02,167.56 278.17,167.58 280.54,164.96 C282.53,162.76 284.83,146.53 284.94,133.89 L 285.00 127.28 L 276.25 119.31 C268.85,112.56 264.88,109.36 262.72,108.53 C263.46,108.41 263.46,108.05 262.82,107.29 ZM 79.62 174.82 C75.47,177.95 69.61,177.43 68.67,173.84 C67.67,170.01 69.51,167.16 77.60,160.09 C79.74,158.21 85.33,153.04 90.02,148.59 C105.01,134.36 111.36,128.56 117.50,123.50 C120.80,120.78 125.40,116.85 127.73,114.78 C131.06,111.80 132.77,111.00 135.78,111.00 C140.21,111.00 142.00,112.40 142.00,115.86 C142.00,118.61 141.50,119.11 115.00,142.83 C105.38,151.45 94.13,161.68 90.00,165.57 C85.88,169.46 81.20,173.62 79.62,174.82 ZM 58.69 191.39 C57.48,191.71 55.60,191.96 54.50,191.94 C51.05,191.90 42.66,188.48 42.24,186.96 C41.98,185.97 42.12,185.87 42.67,186.65 C43.13,187.28 46.48,188.11 50.12,188.50 L 56.74 189.21 L 57.37 183.85 C57.71,180.91 57.92,164.02 57.84,146.31 C57.70,117.30 57.86,113.86 59.42,111.48 C61.76,107.91 65.59,106.48 78.00,104.58 C111.11,99.51 144.65,97.92 176.20,99.92 C194.34,101.07 224.00,104.87 230.89,106.93 C234.85,108.11 238.00,110.70 238.00,112.77 C238.00,113.78 237.47,113.58 236.25,112.09 C230.68,105.30 152.32,99.57 119.00,103.51 C117.07,103.74 110.55,104.41 104.50,105.01 C83.04,107.13 69.38,109.73 66.15,112.33 C65.40,112.93 64.40,114.45 63.92,115.71 C63.44,116.97 63.02,133.07 62.97,151.50 C62.93,171.30 62.48,186.18 61.89,187.90 C61.32,189.52 59.91,191.06 58.69,191.39 ZM 174.00 336.00 C161.07,336.52 149.15,336.87 147.50,336.77 C145.85,336.67 140.23,336.46 135.00,336.31 C111.22,335.62 78.54,333.03 67.50,330.97 C64.75,330.45 60.60,329.81 58.28,329.55 C54.06,329.07 44.69,324.93 43.51,323.02 C42.55,321.47 44.59,321.80 45.93,323.42 C47.26,325.02 53.40,326.13 76.50,328.94 C128.43,335.26 193.35,334.21 240.32,326.29 C253.54,324.07 254.24,323.21 253.81,309.78 C253.49,299.59 254.09,298.23 257.35,301.83 C258.63,303.25 259.00,305.70 259.00,312.84 C259.00,321.82 258.93,322.11 255.75,325.54 C253.68,327.78 251.35,329.20 249.34,329.45 C247.61,329.66 245.31,330.30 244.25,330.87 C243.19,331.43 241.46,331.90 240.41,331.90 C235.66,331.91 221.07,332.83 217.00,333.38 C209.91,334.33 199.31,334.98 174.00,336.00 ZM 82.66 143.12 C77.50,147.26 73.76,148.01 70.44,145.58 C68.81,144.39 68.50,142.93 68.50,136.33 C68.50,126.66 70.07,122.74 75.39,119.07 C80.13,115.81 87.19,114.19 98.35,113.78 C105.64,113.52 106.32,113.67 107.79,115.85 C109.36,118.17 109.21,118.37 98.44,128.73 C92.42,134.51 85.32,140.99 82.66,143.12 ZM 596.00 274.61 C602.78,271.06 610.00,262.26 610.00,257.54 C610.00,255.30 592.50,255.26 591.64,257.49 C590.82,259.64 587.68,261.51 583.81,262.42 C587.81,261.26 591.50,258.87 591.50,256.46 C591.50,254.70 590.68,254.47 583.49,254.21 C573.81,253.87 570.97,255.19 573.02,259.08 C573.73,260.41 574.79,261.83 575.40,262.23 C575.95,262.60 576.62,262.84 577.38,262.99 C573.36,262.91 572.40,262.35 569.04,259.15 C566.76,256.98 565.00,254.37 565.00,253.15 C565.00,251.01 565.11,251.00 588.39,251.00 C589.77,251.00 591.08,251.00 592.31,251.00 C606.71,251.02 611.12,251.02 612.45,249.00 C613.04,248.10 613.03,246.81 613.01,244.96 C613.00,244.60 613.00,244.22 613.00,243.81 C613.00,238.80 610.42,228.61 608.26,225.12 C605.11,220.02 600.43,215.78 594.78,212.91 C592.35,211.68 590.74,210.96 588.78,210.55 C589.85,210.65 590.79,210.79 591.71,211.02 C594.93,211.80 597.91,213.55 605.69,217.83 C611.77,221.18 618.00,235.07 618.00,245.30 C618.00,249.45 617.51,250.90 615.33,253.18 C612.97,255.65 612.80,256.26 613.85,258.57 C614.87,260.82 614.67,261.84 612.29,266.20 C609.20,271.88 605.65,274.94 598.46,278.12 C591.40,281.24 572.50,281.76 569.55,278.92 C569.03,278.41 567.79,278.00 566.80,278.00 C565.81,278.00 565.00,277.66 565.00,277.25 C565.00,276.91 563.64,275.90 561.77,274.82 C566.12,276.52 571.57,276.92 580.00,276.73 C589.78,276.50 593.26,276.04 596.00,274.61 ZM 240.50 302.52 C234.06,304.31 233.67,304.31 234.38,302.45 C234.79,301.39 233.96,300.35 231.83,299.20 C226.49,296.31 224.99,294.32 225.12,290.25 L 225.23 286.50 L 225.98 290.42 C226.40,292.57 227.56,294.94 228.56,295.67 C233.71,299.43 239.13,294.74 240.84,285.03 C242.11,277.81 244.95,273.39 248.88,272.53 C250.56,272.16 252.19,270.89 252.86,269.40 C254.07,266.76 254.55,207.61 253.39,204.58 C252.63,202.59 241.12,202.32 239.07,204.25 C238.01,205.26 237.84,205.21 238.20,204.00 C238.88,201.78 252.19,201.33 254.32,203.46 C255.16,204.31 256.29,205.00 256.82,205.00 C258.76,205.00 259.00,208.72 258.99,238.33 C258.97,260.37 258.64,269.16 257.73,270.96 C257.04,272.31 254.74,274.60 252.62,276.04 C248.28,278.99 246.10,282.28 246.02,286.00 C245.95,289.47 243.72,295.55 241.69,297.79 C239.36,300.37 239.56,300.99 242.75,301.07 C244.78,301.12 244.19,301.50 240.50,302.52 ZM 363.00 177.89 C361.08,178.58 355.45,179.34 350.50,179.60 C341.02,180.09 337.07,179.16 327.20,174.11 C322.23,171.57 315.35,165.61 313.89,162.59 C313.33,161.44 314.59,162.40 316.69,164.72 C328.15,177.40 351.35,180.43 365.45,171.09 C376.71,163.63 380.48,155.50 379.80,140.15 C379.10,124.52 374.00,116.17 361.64,110.41 C358.81,109.10 357.07,108.02 357.77,108.01 C358.47,108.00 361.97,109.33 365.56,110.95 C380.05,117.52 386.87,130.89 385.05,149.15 C383.68,162.90 375.60,173.44 363.00,177.89 ZM 177.50 301.98 C153.04,303.10 148.95,303.09 121.00,301.80 C103.33,300.99 101.03,300.67 96.50,298.44 C93.75,297.09 92.62,296.22 94.00,296.52 C105.32,298.99 162.62,299.94 188.50,298.09 L 202.50 297.09 L 205.00 293.84 C211.76,285.04 219.90,280.19 223.78,282.64 C226.18,284.15 226.42,286.00 224.23,286.00 C219.85,286.00 216.34,288.24 212.57,293.46 C207.57,300.37 206.31,300.67 177.50,301.98 ZM 33.71 165.38 C28.91,169.01 24.03,170.05 19.94,168.33 C16.02,166.68 12.99,164.17 13.03,162.60 C13.05,161.99 13.53,162.31 14.11,163.31 C16.06,166.65 19.71,167.22 24.80,164.97 C32.37,161.62 33.00,160.66 32.98,152.60 C32.96,148.69 32.53,140.10 32.02,133.51 C31.12,121.77 31.15,121.42 33.55,117.33 C34.90,115.03 36.00,112.00 36.00,110.60 C36.00,108.28 36.23,108.14 38.57,109.02 C39.98,109.56 41.33,110.00 41.57,110.00 C41.80,110.00 42.00,93.28 42.00,72.86 L 42.00 35.71 L 52.19 25.36 C57.79,19.66 62.67,15.00 63.03,15.00 C63.38,15.00 59.02,19.64 53.34,25.31 L 43.00 35.63 L 42.77 99.06 C42.64,133.95 42.41,152.49 42.25,140.25 C42.02,122.30 41.70,118.00 40.60,118.00 C37.40,118.00 36.66,123.56 37.63,140.33 C38.14,149.22 38.19,157.95 37.74,159.73 C37.28,161.55 35.51,164.02 33.71,165.38 ZM 519.45 276.00 L 528.70 276.00 C538.92,276.00 539.00,275.98 539.00,273.58 C539.00,270.42 530.74,258.32 522.56,249.50 C515.83,242.24 515.02,240.65 517.41,239.30 C518.19,238.86 520.78,236.65 523.16,234.39 C533.86,224.25 538.40,217.83 537.81,213.68 C537.52,211.65 536.89,211.48 528.44,211.21 L 521.61 211.00 L 529.05 211.00 C537.79,211.00 538.85,211.21 540.83,213.31 C542.02,214.59 543.00,216.34 543.00,217.20 C543.00,219.93 535.17,230.62 528.97,236.37 C525.69,239.41 523.00,242.75 523.00,243.79 C523.00,244.84 525.14,248.16 527.75,251.18 C542.25,267.95 546.12,275.40 541.77,278.16 C539.61,279.53 525.49,279.11 521.87,277.56 C521.14,277.25 520.29,276.69 519.45,276.00 ZM 384.50 211.50 L 365.50 211.50 L 375.25 211.21 C384.24,210.95 385.20,211.11 387.47,213.21 L 389.93 215.50 L 390.05 245.33 C390.16,272.36 390.00,275.34 388.43,277.08 C386.98,278.68 385.42,278.98 379.10,278.86 C374.36,278.78 370.28,278.12 368.26,277.11 L 366.02 276.00 L 385.03 276.00 ZM 429.79 260.43 C419.00,258.20 414.28,242.39 421.62,232.17 C427.00,224.68 438.27,223.87 443.80,230.58 C446.61,233.98 446.80,234.04 455.08,234.27 L 463.50 234.50 L 463.80 230.46 C464.04,227.12 463.48,225.61 460.58,221.81 C458.65,219.29 454.70,215.71 451.79,213.86 C446.51,210.51 446.47,210.50 434.00,210.50 C427.57,210.50 424.35,210.54 421.87,211.03 C424.26,210.50 427.16,210.32 432.27,210.16 C444.35,209.78 448.87,210.86 457.75,216.24 C464.48,220.32 468.31,225.70 468.42,231.24 C468.49,234.71 468.09,235.61 466.00,236.69 C462.58,238.44 453.84,238.35 451.44,236.53 C450.37,235.72 448.80,235.05 447.94,235.03 C447.08,235.01 445.43,233.72 444.27,232.15 C442.71,230.05 441.41,229.35 439.33,229.49 C437.77,229.60 435.50,229.76 434.28,229.84 C430.33,230.12 425.31,235.55 424.01,240.96 C423.36,243.67 423.12,246.92 423.47,248.19 C424.70,252.61 427.31,258.00 428.21,258.00 C428.71,258.00 428.87,258.40 428.56,258.90 C428.19,259.50 428.70,260.04 429.79,260.43 ZM 518.06 177.58 C510.94,180.12 494.70,180.42 488.45,178.12 C477.92,174.24 471.47,169.63 468.41,163.80 C466.81,160.74 466.50,154.00 467.97,154.00 C468.50,154.00 468.68,154.68 468.36,155.51 C466.36,160.71 472.38,169.52 480.31,173.01 C498.95,181.19 523.50,175.14 528.09,161.23 C529.84,155.91 528.83,147.04 526.04,143.27 C523.68,140.08 517.19,136.36 511.50,134.95 C509.08,134.35 508.94,134.19 510.77,134.10 C513.42,133.98 525.52,139.27 528.35,141.78 C533.82,146.64 535.67,158.81 532.03,165.94 C529.55,170.81 523.95,175.46 518.06,177.58 ZM 459.17 176.35 C456.83,178.46 444.66,178.58 441.00,176.53 C438.68,175.22 439.11,175.10 447.00,174.81 L 455.50 174.50 L 456.00 142.19 L 456.50 109.88 L 458.75 111.98 C460.99,114.07 461.00,114.24 461.00,144.38 C461.00,172.47 460.87,174.81 459.17,176.35 ZM 659.48 260.06 L 657.26 260.48 C652.57,261.36 648.17,259.44 647.24,256.12 C646.83,254.68 646.50,247.65 646.50,240.50 L 646.50 227.50 L 661.00 226.91 L 661.00 211.76 C662.02,212.17 662.91,212.67 663.56,213.24 C665.62,215.03 666.00,216.26 666.00,221.12 C666.00,225.95 665.64,227.14 663.78,228.44 C662.56,229.30 660.28,230.00 658.71,230.00 C652.46,230.00 652.00,230.92 652.00,243.49 C652.00,257.67 652.87,260.00 658.16,260.00 C658.63,260.00 659.07,260.02 659.48,260.06 ZM 349.97 260.00 L 347.83 260.00 C339.33,260.00 339.00,259.31 339.00,241.85 L 339.00 227.00 L 353.08 227.00 L 352.79 219.25 L 352.50 211.59 C356.16,212.96 358.00,216.02 358.00,220.73 C358.00,227.33 356.18,229.61 350.41,230.26 C347.85,230.55 345.35,231.39 344.86,232.14 C343.65,234.00 343.96,257.20 345.23,258.75 C345.79,259.44 347.92,260.00 349.97,260.00 ZM 517.48 212.99 L 510.58 220.49 C505.74,225.75 500.46,230.74 498.85,231.58 L 495.91 233.10 L 496.29 212.30 C496.50,200.86 496.46,189.81 496.20,187.75 L 495.74 184.00 L 476.00 184.00 L 476.00 183.00 L 485.94 183.00 C494.95,183.00 496.15,183.22 498.63,185.36 L 501.37 187.72 L 501.44 207.76 C501.49,225.27 501.69,227.70 503.00,226.97 C503.83,226.51 507.86,222.73 511.97,218.57 ZM 452.31 273.03 C459.27,268.81 463.17,263.29 463.80,256.77 L 464.20 252.55 C465.32,252.86 466.05,253.33 466.81,254.04 C472.51,259.35 466.17,271.33 454.65,277.00 C449.61,279.48 446.81,280.15 439.96,280.52 C429.35,281.08 423.17,279.55 416.00,274.57 C415.47,274.20 414.96,273.85 414.47,273.49 C419.20,276.46 423.71,276.97 434.54,276.75 C446.33,276.51 446.71,276.43 452.31,273.03 ZM 429.30 158.08 C426.89,158.99 420.87,159.14 418.00,158.36 C417.17,158.13 415.48,156.46 414.23,154.63 C412.02,151.41 411.97,150.73 412.23,130.41 L 412.50 109.50 L 414.75 111.75 C416.92,113.92 417.00,114.66 417.00,132.25 C417.00,147.62 417.28,151.05 418.75,154.00 C420.96,158.43 425.76,159.30 430.13,156.07 C432.29,154.46 432.80,154.35 432.34,155.57 C432.00,156.44 430.63,157.57 429.30,158.08 ZM 497.35 132.01 C499.27,132.78 499.18,132.88 496.50,132.90 C488.69,132.96 485.33,127.04 490.90,123.07 C495.53,119.78 500.96,120.29 506.00,124.50 C509.88,127.74 510.68,128.00 516.97,128.00 C524.57,128.00 526.64,126.69 525.60,122.53 C524.61,118.58 518.96,112.89 513.51,110.35 C510.75,109.07 509.11,108.02 509.86,108.01 C512.98,107.99 524.10,114.29 526.88,117.67 C530.74,122.35 531.51,125.57 529.52,128.61 C528.12,130.75 527.23,131.00 521.02,131.00 C515.09,131.00 513.34,130.56 508.91,127.95 C501.56,123.62 499.01,123.30 496.14,126.35 C493.61,129.04 493.95,130.63 497.35,132.01 ZM 343.00 159.12 C343.00,159.18 343.00,159.25 343.00,159.30 C343.01,159.55 343.01,159.72 342.93,159.80 C342.73,160.00 342.05,159.71 339.75,158.72 C339.52,158.62 339.27,158.52 339.00,158.40 C337.08,157.58 334.26,155.28 332.75,153.29 C328.93,148.28 328.81,138.71 332.47,132.46 C337.50,123.88 351.07,122.55 356.37,130.12 C358.74,133.50 358.37,134.74 355.93,131.63 C352.26,126.98 342.29,128.45 337.91,134.29 C335.88,137.00 335.50,138.65 335.50,144.79 C335.50,148.86 335.97,152.39 336.57,152.79 C337.16,153.18 337.95,154.33 338.33,155.34 C338.70,156.36 339.91,157.42 341.01,157.71 C342.10,158.00 343.00,158.63 343.00,159.12 ZM 91.50 254.30 C93.15,255.19 94.05,255.93 93.50,255.93 C90.65,255.97 79.70,248.76 73.91,243.02 C65.90,235.10 61.00,225.50 58.32,212.45 L 56.48 203.50 L 50.66 203.20 C46.94,203.00 44.26,203.37 43.25,204.20 C41.93,205.29 41.75,205.26 42.17,204.00 C42.53,202.90 44.51,202.42 49.68,202.21 C56.26,201.94 56.90,202.10 59.85,204.86 C62.10,206.96 63.00,208.71 63.00,210.97 C63.00,215.01 67.40,228.24 70.52,233.60 C75.46,242.08 83.47,249.98 91.50,254.30 ZM 496.50 250.50 L 504.54 258.65 C508.97,263.14 513.89,268.87 515.49,271.40 L 516.07 272.31 C514.73,270.21 511.39,266.16 508.64,263.29 C504.28,258.74 503.51,258.29 502.47,259.70 C501.83,260.59 501.21,264.51 501.12,268.41 C500.97,274.23 500.57,275.81 498.86,277.25 C496.08,279.58 482.88,279.77 481.00,277.50 C480.32,276.67 478.91,276.00 477.88,276.00 L 495.94 276.00 ZM 338.37 109.13 C339.72,109.40 338.95,110.12 335.59,111.75 C332.16,113.41 330.82,113.68 330.49,112.75 C330.25,112.06 329.92,104.69 329.77,96.36 L 329.50 81.22 L 332.25 83.18 C334.95,85.10 335.00,85.31 335.02,95.82 C335.03,107.13 335.39,108.55 338.37,109.13 ZM 242.76 345.02 C247.25,342.98 249.00,340.16 249.00,334.93 C249.00,334.78 249.00,334.64 249.00,334.50 C249.01,333.55 249.01,332.92 248.70,332.56 C248.58,332.42 248.42,332.32 248.18,332.26 C249.70,332.44 250.66,332.96 251.76,333.99 C256.00,337.95 253.46,344.82 246.50,348.23 C243.58,349.65 227.09,350.43 222.50,349.36 C219.28,348.61 215.53,346.67 212.80,344.62 C216.05,346.09 221.43,346.83 229.00,346.89 C236.36,346.94 239.46,346.52 242.76,345.02 ZM 564.48 237.98 C563.55,236.47 564.84,231.81 566.86,229.37 C570.98,224.40 578.12,222.75 584.28,225.36 C588.47,227.13 590.72,229.75 591.54,233.87 C591.11,232.77 590.42,231.53 589.63,230.56 C587.54,227.94 586.74,227.64 582.45,227.86 C575.13,228.24 571.43,230.97 570.40,236.75 C570.23,237.69 572.91,238.00 581.09,238.00 C590.12,238.00 591.68,237.96 591.94,236.61 L 592.26 239.00 L 578.69 239.00 C570.51,239.00 564.87,238.59 564.48,237.98 ZM 660.16 275.75 C661.39,274.76 661.61,272.98 661.24,267.16 L 660.79 260.27 C661.54,260.46 662.00,260.71 662.00,261.00 C662.00,261.55 662.69,262.00 663.52,262.00 C667.36,262.00 668.27,273.46 664.75,277.42 C659.40,283.42 642.94,280.61 633.81,272.97 C637.43,275.71 642.40,276.87 650.06,276.93 C655.51,276.97 659.18,276.55 660.16,275.75 ZM 351.42 276.39 C352.68,275.91 353.00,274.17 353.00,267.89 L 353.00 260.34 C356.27,261.21 357.80,263.76 358.10,268.52 C358.47,274.37 357.53,277.64 355.13,278.93 C353.02,280.06 342.26,281.06 339.50,280.38 C334.44,279.14 332.07,278.02 327.59,274.17 C328.18,274.49 328.82,274.81 329.50,275.12 C333.50,276.95 347.79,277.79 351.42,276.39 ZM 383.08 200.08 C387.94,195.22 386.86,186.12 381.01,182.67 C379.44,181.74 377.78,181.24 376.14,181.10 C377.91,181.22 379.71,181.73 381.78,182.65 C383.83,183.56 385.84,184.24 386.26,184.15 C388.02,183.79 390.99,190.69 391.00,195.15 C391.00,199.22 390.56,200.18 387.47,202.90 C385.52,204.60 382.86,206.00 381.55,206.00 C380.24,206.00 378.56,206.22 377.83,206.50 C375.56,207.35 370.60,204.16 367.12,200.44 C371.56,203.94 378.79,204.36 383.08,200.08 ZM 72.81 297.96 C70.02,300.56 65.22,300.55 62.00,297.92 L 59.50 295.88 L 62.82 296.54 C67.39,297.44 70.00,294.98 70.00,289.78 C70.00,282.04 72.94,280.39 81.02,283.62 C83.70,284.70 86.11,286.75 88.13,289.69 C89.82,292.14 90.96,294.38 90.67,294.66 C90.38,294.95 89.44,293.82 88.58,292.15 C86.59,288.30 83.31,286.00 79.81,286.00 C76.66,286.00 75.00,288.37 75.00,292.90 C75.00,294.72 74.13,296.73 72.81,297.96 ZM 141.26 48.94 C144.97,49.68 145.11,49.79 142.41,49.89 C137.96,50.05 128.18,44.82 122.71,39.34 C117.38,34.02 114.42,28.50 111.96,19.36 C110.38,13.46 110.38,13.13 111.97,13.98 C114.64,15.41 115.64,17.10 117.34,23.00 C120.80,35.06 131.91,47.10 141.26,48.94 ZM 427.77 178.48 C419.88,180.82 416.23,180.40 407.45,176.16 C399.99,172.55 395.25,169.00 397.88,169.00 C398.49,169.00 399.00,169.37 399.00,169.82 C399.00,171.03 409.92,175.79 414.30,176.50 C419.51,177.34 427.75,174.77 431.83,171.02 C433.65,169.35 435.51,168.20 435.96,168.48 C437.24,169.26 437.83,175.11 436.59,174.70 C436.00,174.50 434.93,174.93 434.21,175.64 C433.49,176.36 430.60,177.64 427.77,178.48 ZM 79.50 345.90 C84.25,344.60 87.00,342.38 87.00,339.86 C87.00,337.97 86.78,337.68 74.62,335.90 C79.61,336.55 83.51,337.00 84.60,337.00 C91.77,337.00 93.11,344.23 86.53,347.44 C83.58,348.88 79.98,349.45 72.53,349.66 C61.39,349.97 59.30,349.52 53.50,345.57 C53.01,345.24 52.56,344.92 52.14,344.60 C55.18,346.21 59.69,346.93 66.00,346.95 C71.22,346.97 77.30,346.50 79.50,345.90 ZM 508.62 154.61 C508.96,155.98 508.96,157.37 508.62,157.71 C508.28,158.05 508.00,157.57 508.00,156.64 C508.00,154.37 504.73,153.27 494.26,151.99 C484.59,150.82 476.93,147.62 472.37,142.87 C470.86,141.29 470.13,140.00 470.76,140.00 C471.38,140.00 472.47,140.83 473.19,141.85 C475.47,145.08 480.61,146.97 492.72,149.03 C507.68,151.58 507.87,151.65 508.62,154.61 ZM 658.31 211.00 L 646.00 211.00 L 646.00 197.53 C646.66,197.68 647.00,197.86 647.00,198.06 C647.00,198.64 647.40,198.87 647.89,198.57 C649.42,197.62 651.12,200.70 651.83,205.69 L 652.51 210.50 L 656.82 210.81 C657.32,210.85 657.81,210.91 658.31,211.00 ZM 352.23 211.49 L 339.09 210.91 L 338.79 204.21 L 338.51 197.78 C342.13,198.77 343.16,200.93 343.81,205.54 L 344.51 210.50 L 348.67 210.80 C350.00,210.90 351.18,211.13 352.23,211.49 ZM 320.87 266.41 C319.20,262.53 318.63,256.74 318.27,245.44 C317.76,229.18 317.97,229.77 311.75,227.43 C311.48,227.32 311.24,227.19 311.05,227.00 L 319.00 227.00 L 319.04 244.25 C319.07,255.36 319.43,262.02 320.87,266.41 ZM 499.50 162.08 L 503.50 162.75 L 499.50 162.84 C493.12,162.97 488.31,160.31 486.68,155.73 C486.16,154.29 486.37,154.13 487.77,154.88 C488.72,155.39 490.85,157.07 492.50,158.61 C494.22,160.22 497.20,161.69 499.50,162.08 ZM 627.33 262.47 C626.35,258.30 626.00,252.57 626.00,243.86 C626.00,231.56 625.87,230.71 623.75,228.94 C622.51,227.91 620.69,227.05 619.71,227.03 C619.56,227.03 619.43,227.02 619.31,227.00 L 626.00 227.00 L 626.02 242.25 C626.04,252.17 626.36,258.21 627.33,262.47 ZM 213.53 337.20 C215.95,336.77 219.66,336.28 225.35,335.54 C231.86,334.69 237.68,333.70 238.28,333.33 C238.88,332.96 241.65,332.49 244.44,332.28 C245.47,332.20 246.33,332.17 247.07,332.18 C245.85,332.24 243.87,332.61 240.65,333.19 C240.24,333.27 239.81,333.34 239.36,333.43 C235.04,334.21 227.45,335.36 222.50,335.97 C218.39,336.49 215.52,336.86 213.53,337.20 ZM 398.63 251.77 C399.60,257.27 401.79,261.67 405.55,265.85 C403.86,264.01 402.46,262.11 401.20,260.01 C399.49,257.16 398.86,255.74 398.63,251.77 ZM 336.94 197.45 L 321.67 197.01 L 328.75 197.02 C332.26,197.03 334.91,197.13 336.94,197.45 ZM 563.60 212.04 C563.71,212.00 563.81,211.96 563.92,211.92 C567.60,210.54 569.90,210.07 575.27,210.08 C570.67,210.29 566.90,210.91 563.60,212.04 ZM 401.16 227.97 C400.00,230.37 399.16,232.91 398.67,235.57 C398.93,232.15 399.57,230.69 401.16,227.97 ZM 365.39 186.06 C366.50,184.41 367.97,183.07 369.64,182.38 C369.92,182.26 370.19,182.15 370.47,182.05 C368.45,182.92 366.68,184.31 365.39,186.06 ZM 415.68 213.45 C412.77,214.92 410.17,216.75 407.91,218.85 C410.12,216.69 412.58,215.02 415.68,213.45 ZM 553.76 269.25 C552.35,267.91 551.07,266.43 549.93,264.84 C550.13,265.10 550.33,265.36 550.54,265.61 C551.66,266.98 552.72,268.19 553.76,269.25 ZM 446.85 252.91 L 445.27 254.63 C445.83,253.85 446.28,253.30 446.85,252.91 ZM 209.01 339.50 C209.05,338.99 209.18,338.61 209.68,338.28 C209.20,338.61 209.05,338.99 209.01,339.50 ZM 439.28 259.79 C438.87,259.99 438.45,260.16 438.01,260.31 C438.44,260.16 438.86,259.98 439.28,259.79 ZM 363.43 194.46 C363.42,194.44 363.42,194.43 363.42,194.41 C363.36,194.13 363.33,193.85 363.30,193.56 C363.33,193.86 363.37,194.16 363.43,194.46 ZM 51.07 332.43 C50.95,332.41 50.84,332.40 50.75,332.38 C49.61,332.18 48.81,332.05 48.26,332.06 C48.81,332.05 49.61,332.18 50.75,332.38 C50.86,332.40 50.96,332.41 51.07,332.43 ZM 209.01 340.10 C209.00,340.05 209.00,340.01 209.00,339.97 C209.00,339.94 209.00,339.92 209.00,339.90 C209.00,339.97 209.00,340.03 209.01,340.10 Z" fill="rgb(218,210,205)"/>
<path d="M 0.00 182.00 L 0.00 0.00 L 342.00 0.00 L 684.00 0.00 L 684.00 182.00 L 684.00 364.00 L 342.00 364.00 L 0.00 364.00 L 0.00 182.00 ZM 86.53 347.44 C93.11,344.23 91.77,337.00 84.60,337.00 C81.89,337.00 61.46,334.21 50.75,332.38 C47.03,331.74 47.00,331.76 47.04,335.12 C47.08,339.67 48.73,342.33 53.50,345.57 C59.30,349.52 61.39,349.97 72.53,349.66 C79.98,349.45 83.58,348.88 86.53,347.44 ZM 246.50 348.23 C253.46,344.82 256.00,337.95 251.76,333.99 C249.95,332.31 248.54,331.98 244.44,332.28 C241.65,332.49 238.88,332.96 238.28,333.33 C237.68,333.70 231.86,334.69 225.35,335.54 C209.32,337.63 209.00,337.72 209.00,339.97 C209.00,342.68 216.64,348.00 222.50,349.36 C227.09,350.43 243.58,349.65 246.50,348.23 ZM 174.00 336.00 C199.31,334.98 209.91,334.33 217.00,333.38 C221.07,332.83 235.66,331.91 240.41,331.90 C241.46,331.90 243.19,331.43 244.25,330.87 C245.31,330.30 247.61,329.66 249.34,329.45 C251.35,329.20 253.68,327.78 255.75,325.54 C258.93,322.11 259.00,321.82 259.00,312.84 C259.00,305.70 258.63,303.25 257.35,301.83 C254.09,298.23 253.49,299.59 253.81,309.78 C254.24,323.21 253.54,324.07 240.32,326.29 C193.35,334.21 128.43,335.26 76.50,328.94 C53.40,326.13 47.26,325.02 45.93,323.42 C44.59,321.80 42.55,321.47 43.51,323.02 C44.69,324.93 54.06,329.07 58.28,329.55 C60.60,329.81 64.75,330.45 67.50,330.97 C78.54,333.03 111.22,335.62 135.00,336.31 C140.23,336.46 145.85,336.67 147.50,336.77 C149.15,336.87 161.07,336.52 174.00,336.00 ZM 240.50 302.52 C244.19,301.50 244.78,301.12 242.75,301.07 C239.56,300.99 239.36,300.37 241.69,297.79 C243.72,295.55 245.95,289.47 246.02,286.00 C246.10,282.28 248.28,278.99 252.62,276.04 C254.74,274.60 257.04,272.31 257.73,270.96 C258.64,269.16 258.97,260.37 258.99,238.33 C259.00,208.72 258.76,205.00 256.82,205.00 C256.29,205.00 255.16,204.31 254.32,203.46 C252.19,201.33 238.88,201.78 238.20,204.00 C237.84,205.21 238.01,205.26 239.07,204.25 C241.12,202.32 252.63,202.59 253.39,204.58 C254.55,207.61 254.07,266.76 252.86,269.40 C252.19,270.89 250.56,272.16 248.88,272.53 C244.95,273.39 242.11,277.81 240.84,285.03 C239.13,294.74 233.71,299.43 228.56,295.67 C227.56,294.94 226.40,292.57 225.98,290.42 L 225.23 286.50 L 225.12 290.25 C224.99,294.32 226.49,296.31 231.83,299.20 C233.96,300.35 234.79,301.39 234.38,302.45 C233.67,304.31 234.06,304.31 240.50,302.52 ZM 177.50 301.98 C206.31,300.67 207.57,300.37 212.57,293.46 C216.34,288.24 219.85,286.00 224.23,286.00 C226.42,286.00 226.18,284.15 223.78,282.64 C219.90,280.19 211.76,285.04 205.00,293.84 L 202.50 297.09 L 188.50 298.09 C162.62,299.94 105.32,298.99 94.00,296.52 C92.62,296.22 93.75,297.09 96.50,298.44 C101.03,300.67 103.33,300.99 121.00,301.80 C148.95,303.09 153.04,303.10 177.50,301.98 ZM 72.81 297.96 C74.13,296.73 75.00,294.72 75.00,292.90 C75.00,288.37 76.66,286.00 79.81,286.00 C83.31,286.00 86.59,288.30 88.58,292.15 C89.44,293.82 90.38,294.95 90.67,294.66 C90.96,294.38 89.82,292.14 88.13,289.69 C86.11,286.75 83.70,284.70 81.02,283.62 C72.94,280.39 70.00,282.04 70.00,289.78 C70.00,294.98 67.39,297.44 62.82,296.54 L 59.50 295.88 L 62.00 297.92 C65.22,300.55 70.02,300.56 72.81,297.96 ZM 355.13 278.93 C357.53,277.64 358.47,274.37 358.10,268.52 C357.71,262.47 355.36,260.00 349.97,260.00 C347.92,260.00 345.79,259.44 345.23,258.75 C343.96,257.20 343.65,234.00 344.86,232.14 C345.35,231.39 347.85,230.55 350.41,230.26 C356.18,229.61 358.00,227.33 358.00,220.73 C358.00,214.59 354.87,211.26 348.67,210.80 L 344.51 210.50 L 343.81 205.54 C342.76,198.18 340.77,197.05 328.75,197.02 L 319.00 197.00 L 319.00 204.00 L 319.00 211.00 L 314.50 211.00 L 310.00 211.00 L 310.00 218.88 C310.00,225.47 310.29,226.88 311.75,227.43 C317.97,229.77 317.76,229.18 318.27,245.44 C318.82,262.87 319.89,267.20 324.70,271.60 C331.25,277.58 333.46,278.90 339.50,280.38 C342.26,281.06 353.02,280.06 355.13,278.93 ZM 454.65 277.00 C466.17,271.33 472.51,259.35 466.81,254.04 C464.95,252.31 463.30,252.00 455.88,252.00 C447.30,252.00 447.10,252.06 444.99,255.02 C442.40,258.66 438.15,261.00 434.13,261.00 C430.36,261.00 427.85,260.05 428.56,258.90 C428.87,258.40 428.71,258.00 428.21,258.00 C427.31,258.00 424.70,252.61 423.47,248.19 C423.12,246.92 423.36,243.67 424.01,240.96 C425.31,235.55 430.33,230.12 434.28,229.84 C435.50,229.76 437.77,229.60 439.33,229.49 C441.41,229.35 442.71,230.05 444.27,232.15 C445.43,233.72 447.08,235.01 447.94,235.03 C448.80,235.05 450.37,235.72 451.44,236.53 C453.84,238.35 462.58,238.44 466.00,236.69 C468.09,235.61 468.49,234.71 468.42,231.24 C468.31,225.70 464.48,220.32 457.75,216.24 C448.87,210.86 444.35,209.78 432.27,210.16 C422.70,210.46 420.85,210.83 415.68,213.45 C409.34,216.66 405.67,220.31 401.32,227.71 C398.67,232.21 398.50,233.19 398.50,244.00 C398.50,254.72 398.68,255.81 401.20,260.01 C404.40,265.34 408.48,269.35 416.00,274.57 C423.17,279.55 429.35,281.08 439.96,280.52 C446.81,280.15 449.61,279.48 454.65,277.00 ZM 598.46 278.12 C605.65,274.94 609.20,271.88 612.29,266.20 C614.67,261.84 614.87,260.82 613.85,258.57 C612.80,256.26 612.97,255.65 615.33,253.18 C617.51,250.90 618.00,249.45 618.00,245.30 C618.00,235.07 611.77,221.18 605.69,217.83 C591.71,210.14 593.22,210.61 581.00,210.20 C571.16,209.88 568.70,210.12 563.92,211.92 C553.06,216.00 546.23,224.59 544.00,236.96 C541.23,252.34 547.90,267.42 560.42,274.07 C562.94,275.40 565.00,276.83 565.00,277.25 C565.00,277.66 565.81,278.00 566.80,278.00 C567.79,278.00 569.03,278.41 569.55,278.92 C572.50,281.76 591.40,281.24 598.46,278.12 ZM 664.75 277.42 C668.27,273.46 667.36,262.00 663.52,262.00 C662.69,262.00 662.00,261.55 662.00,261.00 C662.00,260.45 660.27,260.00 658.16,260.00 C652.87,260.00 652.00,257.67 652.00,243.49 C652.00,230.92 652.46,230.00 658.71,230.00 C660.28,230.00 662.56,229.30 663.78,228.44 C665.64,227.14 666.00,225.95 666.00,221.12 C666.00,216.26 665.62,215.03 663.56,213.24 C662.09,211.96 659.41,211.00 656.82,210.81 L 652.51 210.50 L 651.83 205.69 C651.12,200.70 649.42,197.62 647.89,198.57 C647.40,198.87 647.00,198.64 647.00,198.06 C647.00,197.38 643.22,197.00 636.50,197.00 L 626.00 197.00 L 626.00 203.94 L 626.00 210.88 L 622.25 211.19 L 618.50 211.50 L 618.21 219.25 C617.95,226.13 618.12,227.00 619.71,227.03 C620.69,227.05 622.51,227.91 623.75,228.94 C625.87,230.71 626.00,231.56 626.00,243.86 C626.00,259.46 627.14,265.50 630.94,270.11 C638.96,279.84 658.78,284.12 664.75,277.42 ZM 388.43 277.08 C390.00,275.34 390.16,272.36 390.05,245.33 L 389.93 215.50 L 387.47 213.21 C385.20,211.11 384.24,210.95 375.25,211.21 L 365.50 211.50 L 365.26 243.50 L 365.02 275.50 L 368.26 277.11 C370.28,278.12 374.36,278.78 379.10,278.86 C385.42,278.98 386.98,278.68 388.43,277.08 ZM 498.86 277.25 C500.57,275.81 500.97,274.23 501.12,268.41 C501.21,264.51 501.83,260.59 502.47,259.70 C503.51,258.29 504.28,258.74 508.64,263.29 C511.39,266.16 514.73,270.21 516.06,272.31 C517.40,274.40 520.02,276.77 521.87,277.56 C525.49,279.11 539.61,279.53 541.77,278.16 C546.12,275.40 542.25,267.95 527.75,251.18 C525.14,248.16 523.00,244.84 523.00,243.79 C523.00,242.75 525.69,239.41 528.97,236.37 C535.17,230.62 543.00,219.93 543.00,217.20 C543.00,216.34 542.02,214.59 540.83,213.31 C538.85,211.21 537.79,211.00 529.05,211.00 L 519.45 211.00 L 511.97 218.57 C507.86,222.73 503.83,226.51 503.00,226.97 C501.69,227.70 501.49,225.27 501.44,207.76 L 501.37 187.72 L 498.63 185.36 C496.15,183.22 494.95,183.00 485.94,183.00 L 476.00 183.00 L 476.00 229.50 C476.00,274.32 476.07,276.00 477.88,276.00 C478.91,276.00 480.32,276.67 481.00,277.50 C482.88,279.77 496.08,279.58 498.86,277.25 ZM 91.50 254.30 C83.47,249.98 75.46,242.08 70.52,233.60 C67.40,228.24 63.00,215.01 63.00,210.97 C63.00,208.71 62.10,206.96 59.85,204.86 C56.90,202.10 56.26,201.94 49.68,202.21 C44.51,202.42 42.53,202.90 42.17,204.00 C41.75,205.26 41.93,205.29 43.25,204.20 C44.26,203.37 46.94,203.00 50.66,203.20 L 56.48 203.50 L 58.32 212.45 C61.00,225.50 65.90,235.10 73.91,243.02 C79.70,248.76 90.65,255.97 93.50,255.93 C94.05,255.93 93.15,255.19 91.50,254.30 ZM 381.55 206.00 C382.86,206.00 385.52,204.60 387.47,202.90 C390.56,200.18 391.00,199.22 391.00,195.15 C390.99,190.69 388.02,183.79 386.26,184.15 C385.84,184.24 383.83,183.56 381.78,182.65 C377.25,180.64 373.98,180.56 369.64,182.38 C365.49,184.11 362.55,189.80 363.42,194.41 C364.37,199.47 374.32,207.82 377.83,206.50 C378.56,206.22 380.24,206.00 381.55,206.00 ZM 58.69 191.39 C59.91,191.06 61.32,189.52 61.89,187.90 C62.48,186.18 62.93,171.30 62.97,151.50 C63.02,133.07 63.44,116.97 63.92,115.71 C64.40,114.45 65.40,112.93 66.15,112.33 C69.38,109.73 83.04,107.13 104.50,105.01 C110.55,104.41 117.07,103.74 119.00,103.51 C152.32,99.57 230.68,105.30 236.25,112.09 C237.47,113.58 238.00,113.78 238.00,112.77 C238.00,110.70 234.85,108.11 230.89,106.93 C224.00,104.87 194.34,101.07 176.20,99.92 C144.65,97.92 111.11,99.51 78.00,104.58 C65.59,106.48 61.76,107.91 59.42,111.48 C57.86,113.86 57.70,117.30 57.84,146.31 C57.92,164.02 57.71,180.91 57.37,183.85 L 56.74 189.21 L 50.12 188.50 C46.48,188.11 43.13,187.28 42.67,186.65 C42.12,185.87 41.98,185.97 42.24,186.96 C42.66,188.48 51.05,191.90 54.50,191.94 C55.60,191.96 57.48,191.71 58.69,191.39 ZM 255.32 190.85 C256.52,190.22 257.83,189.21 258.23,188.60 C258.64,188.00 258.98,172.20 259.00,153.50 C259.02,134.80 259.39,118.93 259.84,118.23 C260.46,117.24 261.01,117.36 262.27,118.75 C263.35,119.94 264.02,122.89 264.25,127.52 L 264.61 134.50 L 264.80 127.44 C264.97,121.31 264.67,119.94 262.50,117.00 C259.90,113.48 259.24,109.59 261.04,108.47 C262.53,107.55 266.27,110.21 276.25,119.31 L 285.00 127.28 L 284.94 133.89 C284.83,146.53 282.53,162.76 280.54,164.96 C278.17,167.58 278.02,167.56 270.84,164.00 C264.49,160.85 262.95,160.35 264.58,161.98 C266.86,164.26 277.61,169.00 280.43,168.97 C285.17,168.92 286.96,166.90 288.03,160.37 C289.39,152.03 290.40,133.73 289.66,130.78 C289.31,129.41 287.11,126.48 284.77,124.28 C272.67,112.92 267.11,108.31 263.26,106.50 L 259.02 104.50 L 259.01 73.88 C259.01,57.03 258.71,41.73 258.37,39.88 C257.89,37.33 255.36,34.19 248.12,27.10 C239.67,18.85 233.71,14.02 231.95,14.00 C231.65,14.00 236.49,19.08 242.70,25.30 L 254.00 36.60 L 253.98 111.05 C253.98,152.00 253.59,186.10 253.12,186.84 C252.51,187.81 250.30,188.08 245.13,187.84 C241.21,187.65 238.00,187.59 238.00,187.70 C238.00,188.22 244.77,190.93 247.00,191.31 C251.63,192.09 253.12,192.00 255.32,190.85 ZM 363.00 177.89 C375.60,173.44 383.68,162.90 385.05,149.15 C386.87,130.89 380.05,117.52 365.56,110.95 C361.97,109.33 358.47,108.00 357.77,108.01 C357.07,108.02 358.81,109.10 361.64,110.41 C374.00,116.17 379.10,124.52 379.80,140.15 C380.48,155.50 376.71,163.63 365.45,171.09 C351.35,180.43 328.15,177.40 316.69,164.72 C314.59,162.40 313.33,161.44 313.89,162.59 C315.35,165.61 322.23,171.57 327.20,174.11 C337.07,179.16 341.02,180.09 350.50,179.60 C355.45,179.34 361.08,178.58 363.00,177.89 ZM 427.77 178.48 C430.60,177.64 433.49,176.36 434.21,175.64 C434.93,174.93 436.00,174.50 436.59,174.70 C437.83,175.11 437.24,169.26 435.96,168.48 C435.51,168.20 433.65,169.35 431.83,171.02 C427.75,174.77 419.51,177.34 414.30,176.50 C409.92,175.79 399.00,171.03 399.00,169.82 C399.00,169.37 398.49,169.00 397.88,169.00 C395.25,169.00 399.99,172.55 407.45,176.16 C416.23,180.40 419.88,180.82 427.77,178.48 ZM 518.06 177.58 C523.95,175.46 529.55,170.81 532.03,165.94 C535.67,158.81 533.82,146.64 528.35,141.78 C525.52,139.27 513.42,133.98 510.77,134.10 C508.94,134.19 509.08,134.35 511.50,134.95 C517.19,136.36 523.68,140.08 526.04,143.27 C528.83,147.04 529.84,155.91 528.09,161.23 C523.50,175.14 498.95,181.19 480.31,173.01 C472.38,169.52 466.36,160.71 468.36,155.51 C468.68,154.68 468.50,154.00 467.97,154.00 C466.50,154.00 466.81,160.74 468.41,163.80 C471.47,169.63 477.92,174.24 488.45,178.12 C494.70,180.42 510.94,180.12 518.06,177.58 ZM 459.17 176.35 C460.87,174.81 461.00,172.47 461.00,144.38 C461.00,114.24 460.99,114.07 458.75,111.98 L 456.50 109.88 L 456.00 142.19 L 455.50 174.50 L 447.00 174.81 C439.11,175.10 438.68,175.22 441.00,176.53 C444.66,178.58 456.83,178.46 459.17,176.35 ZM 79.62 174.82 C81.20,173.62 85.88,169.46 90.00,165.57 C94.13,161.68 105.38,151.45 115.00,142.83 C141.50,119.11 142.00,118.61 142.00,115.86 C142.00,112.40 140.21,111.00 135.78,111.00 C132.77,111.00 131.06,111.80 127.73,114.78 C125.40,116.85 120.80,120.78 117.50,123.50 C111.36,128.56 105.01,134.36 90.02,148.59 C85.33,153.04 79.74,158.21 77.60,160.09 C69.51,167.16 67.67,170.01 68.67,173.84 C69.61,177.43 75.47,177.95 79.62,174.82 ZM 33.71 165.38 C35.51,164.02 37.28,161.55 37.74,159.73 C38.19,157.95 38.14,149.22 37.63,140.33 C36.66,123.56 37.40,118.00 40.60,118.00 C41.70,118.00 42.02,122.30 42.25,140.25 C42.41,152.49 42.64,133.95 42.77,99.06 L 43.00 35.63 L 53.34 25.31 C59.02,19.64 63.38,15.00 63.03,15.00 C62.67,15.00 57.79,19.66 52.19,25.36 L 42.00 35.71 L 42.00 72.86 C42.00,93.28 41.80,110.00 41.57,110.00 C41.33,110.00 39.98,109.56 38.57,109.02 C36.23,108.14 36.00,108.28 36.00,110.60 C36.00,112.00 34.90,115.03 33.55,117.33 C31.15,121.42 31.12,121.77 32.02,133.51 C32.53,140.10 32.96,148.69 32.98,152.60 C33.00,160.66 32.37,161.62 24.80,164.97 C19.71,167.22 16.06,166.65 14.11,163.31 C13.53,162.31 13.05,161.99 13.03,162.60 C12.99,164.17 16.02,166.68 19.94,168.33 C24.03,170.05 28.91,169.01 33.71,165.38 ZM 499.50 162.08 C497.20,161.69 494.22,160.22 492.50,158.61 C490.85,157.07 488.72,155.39 487.77,154.88 C486.37,154.13 486.16,154.29 486.68,155.73 C488.31,160.31 493.12,162.97 499.50,162.84 L 503.50 162.75 L 499.50 162.08 ZM 343.00 159.12 C343.00,158.63 342.10,158.00 341.01,157.71 C339.91,157.42 338.70,156.36 338.33,155.34 C337.95,154.33 337.16,153.18 336.57,152.79 C335.97,152.39 335.50,148.86 335.50,144.79 C335.50,138.65 335.88,137.00 337.91,134.29 C342.29,128.45 352.26,126.98 355.93,131.63 C358.37,134.74 358.74,133.50 356.37,130.12 C351.07,122.55 337.50,123.88 332.47,132.46 C328.81,138.71 328.93,148.28 332.75,153.29 C334.26,155.28 337.08,157.58 339.00,158.40 C343.29,160.23 343.00,160.18 343.00,159.12 ZM 429.30 158.08 C430.63,157.57 432.00,156.44 432.34,155.57 C432.80,154.35 432.29,154.46 430.13,156.07 C425.76,159.30 420.96,158.43 418.75,154.00 C417.28,151.05 417.00,147.62 417.00,132.25 C417.00,114.66 416.92,113.92 414.75,111.75 L 412.50 109.50 L 412.23 130.41 C411.97,150.73 412.02,151.41 414.23,154.63 C415.48,156.46 417.17,158.13 418.00,158.36 C420.87,159.14 426.89,158.99 429.30,158.08 ZM 508.62 154.61 C507.87,151.65 507.68,151.58 492.72,149.03 C480.61,146.97 475.47,145.08 473.19,141.85 C472.47,140.83 471.38,140.00 470.76,140.00 C470.13,140.00 470.86,141.29 472.37,142.87 C476.93,147.62 484.59,150.82 494.26,151.99 C504.73,153.27 508.00,154.37 508.00,156.64 C508.00,157.57 508.28,158.05 508.62,157.71 C508.96,157.37 508.96,155.98 508.62,154.61 ZM 82.66 143.12 C85.32,140.99 92.42,134.51 98.44,128.73 C109.21,118.37 109.36,118.17 107.79,115.85 C106.32,113.67 105.64,113.52 98.35,113.78 C87.19,114.19 80.13,115.81 75.39,119.07 C70.07,122.74 68.50,126.66 68.50,136.33 C68.50,142.93 68.81,144.39 70.44,145.58 C73.76,148.01 77.50,147.26 82.66,143.12 ZM 497.35 132.01 C493.95,130.63 493.61,129.04 496.14,126.35 C499.01,123.30 501.56,123.62 508.91,127.95 C513.34,130.56 515.09,131.00 521.02,131.00 C527.23,131.00 528.12,130.75 529.52,128.61 C531.51,125.57 530.74,122.35 526.88,117.67 C524.10,114.29 512.98,107.99 509.86,108.01 C509.11,108.02 510.75,109.07 513.51,110.35 C518.96,112.89 524.61,118.58 525.60,122.53 C526.64,126.69 524.57,128.00 516.97,128.00 C510.68,128.00 509.88,127.74 506.00,124.50 C500.96,120.29 495.53,119.78 490.90,123.07 C485.33,127.04 488.69,132.96 496.50,132.90 C499.18,132.88 499.27,132.78 497.35,132.01 ZM 338.37 109.13 C335.39,108.55 335.03,107.13 335.02,95.82 C335.00,85.31 334.95,85.10 332.25,83.18 L 329.50 81.22 L 329.77 96.36 C329.92,104.69 330.25,112.06 330.49,112.75 C330.82,113.68 332.16,113.41 335.59,111.75 C338.95,110.12 339.72,109.40 338.37,109.13 ZM 141.26 48.94 C131.91,47.10 120.80,35.06 117.34,23.00 C115.64,17.10 114.64,15.41 111.97,13.98 C110.38,13.13 110.38,13.46 111.96,19.36 C114.42,28.50 117.38,34.02 122.71,39.34 C128.18,44.82 137.96,50.05 142.41,49.89 C145.11,49.79 144.97,49.68 141.26,48.94 ZM 575.40 262.23 C574.79,261.83 573.73,260.41 573.02,259.08 C570.97,255.19 573.81,253.87 583.49,254.21 C590.68,254.47 591.50,254.70 591.50,256.46 C591.50,260.78 579.61,265.04 575.40,262.23 ZM 570.40 236.75 C571.43,230.97 575.13,228.24 582.45,227.86 C586.74,227.64 587.54,227.94 589.63,230.56 C590.93,232.18 591.99,234.51 592.00,235.75 C592.00,237.95 591.74,238.00 581.09,238.00 C572.91,238.00 570.23,237.69 570.40,236.75 Z" fill="rgb(245,92,9)"/>
<path d="M 0.00 182.00 L 0.00 0.00 L 342.00 0.00 L 684.00 0.00 L 684.00 182.00 L 684.00 364.00 L 342.00 364.00 L 0.00 364.00 L 0.00 182.00 ZM 86.53 347.44 C93.11,344.23 91.77,337.00 84.60,337.00 C81.89,337.00 61.46,334.21 50.75,332.38 C47.03,331.74 47.00,331.76 47.04,335.12 C47.08,339.67 48.73,342.33 53.50,345.57 C59.30,349.52 61.39,349.97 72.53,349.66 C79.98,349.45 83.58,348.88 86.53,347.44 ZM 246.50 348.23 C253.46,344.82 256.00,337.95 251.76,333.99 C249.95,332.31 248.54,331.98 244.44,332.28 C241.65,332.49 238.88,332.96 238.28,333.33 C237.68,333.70 231.86,334.69 225.35,335.54 C209.32,337.63 209.00,337.72 209.00,339.97 C209.00,342.68 216.64,348.00 222.50,349.36 C227.09,350.43 243.58,349.65 246.50,348.23 ZM 174.00 336.00 C199.31,334.98 209.91,334.33 217.00,333.38 C221.07,332.83 235.66,331.91 240.41,331.90 C241.46,331.90 243.19,331.43 244.25,330.87 C245.31,330.30 247.61,329.66 249.34,329.45 C251.35,329.20 253.68,327.78 255.75,325.54 C258.93,322.10 259.00,321.84 259.00,312.67 C259.00,300.32 258.25,299.52 247.57,300.53 C243.41,300.92 240.00,300.88 240.00,300.45 C240.00,300.01 240.76,298.82 241.69,297.79 C243.72,295.55 245.95,289.47 246.02,286.00 C246.10,282.28 248.28,278.99 252.62,276.04 C254.74,274.60 257.04,272.31 257.73,270.96 C258.64,269.16 258.97,260.37 258.99,238.33 C259.00,208.72 258.76,205.00 256.82,205.00 C256.29,205.00 255.16,204.31 254.32,203.46 C253.15,202.30 251.04,201.99 245.71,202.21 L 238.64 202.50 L 238.29 208.48 C237.25,226.49 227.05,242.88 210.75,252.76 C193.03,263.50 136.84,266.47 102.38,258.51 C90.04,255.65 77.79,246.08 70.52,233.60 C67.40,228.24 63.00,215.01 63.00,210.97 C63.00,208.71 62.10,206.96 59.85,204.86 C56.89,202.10 56.27,201.94 49.60,202.21 C44.67,202.41 42.53,202.88 42.60,203.75 C42.65,204.44 42.77,219.65 42.85,237.55 L 43.00 270.09 L 46.19 271.80 C52.95,275.41 54.55,278.16 56.49,289.46 C57.40,294.74 62.83,300.00 67.38,300.00 C71.61,300.00 75.00,296.84 75.00,292.90 C75.00,288.21 76.64,286.00 80.11,286.00 C83.12,286.00 85.51,287.93 90.50,294.37 C94.67,299.76 99.27,300.72 127.00,301.96 C153.76,303.17 194.69,302.09 204.07,299.94 C207.96,299.04 209.23,298.08 212.57,293.46 C216.26,288.37 219.86,286.00 223.93,286.00 C225.21,286.00 225.48,286.81 225.18,289.90 C224.77,294.19 226.17,296.14 231.83,299.20 C237.37,302.18 235.09,303.62 222.69,304.95 C216.54,305.60 208.35,306.54 204.50,307.02 C200.65,307.50 186.10,308.44 172.17,309.12 C152.15,310.09 142.00,310.09 123.67,309.12 C91.03,307.39 67.96,304.94 52.50,301.54 C42.05,299.24 42.82,298.39 43.18,311.75 L 43.50 323.50 L 48.66 326.27 C51.50,327.79 55.78,329.26 58.16,329.53 C60.55,329.80 64.75,330.45 67.50,330.97 C78.54,333.03 111.22,335.62 135.00,336.31 C140.23,336.46 145.85,336.67 147.50,336.77 C149.15,336.87 161.07,336.52 174.00,336.00 ZM 355.13 278.93 C357.53,277.64 358.47,274.37 358.10,268.52 C357.71,262.47 355.36,260.00 349.97,260.00 C347.92,260.00 345.79,259.44 345.23,258.75 C343.96,257.20 343.65,234.00 344.86,232.14 C345.35,231.39 347.85,230.55 350.41,230.26 C356.18,229.61 358.00,227.33 358.00,220.73 C358.00,214.59 354.87,211.26 348.67,210.80 L 344.51 210.50 L 343.81 205.54 C342.76,198.18 340.77,197.05 328.75,197.02 L 319.00 197.00 L 319.00 204.00 L 319.00 211.00 L 314.50 211.00 L 310.00 211.00 L 310.00 218.88 C310.00,225.47 310.29,226.88 311.75,227.43 C317.97,229.77 317.76,229.18 318.27,245.44 C318.82,262.87 319.89,267.20 324.70,271.60 C331.25,277.58 333.46,278.90 339.50,280.38 C342.26,281.06 353.02,280.06 355.13,278.93 ZM 454.65 277.00 C466.17,271.33 472.51,259.35 466.81,254.04 C464.95,252.31 463.30,252.00 455.88,252.00 C447.30,252.00 447.10,252.06 444.99,255.02 C442.40,258.66 438.15,261.00 434.13,261.00 C430.36,261.00 427.85,260.05 428.56,258.90 C428.87,258.40 428.71,258.00 428.21,258.00 C427.31,258.00 424.70,252.61 423.47,248.19 C423.12,246.92 423.36,243.67 424.01,240.96 C425.31,235.55 430.33,230.12 434.28,229.84 C435.50,229.76 437.77,229.60 439.33,229.49 C441.41,229.35 442.71,230.05 444.27,232.15 C445.43,233.72 447.08,235.01 447.94,235.03 C448.80,235.05 450.37,235.72 451.44,236.53 C453.84,238.35 462.58,238.44 466.00,236.69 C468.09,235.61 468.49,234.71 468.42,231.24 C468.31,225.70 464.48,220.32 457.75,216.24 C448.87,210.86 444.35,209.78 432.27,210.16 C422.70,210.46 420.85,210.83 415.68,213.45 C409.34,216.66 405.67,220.31 401.32,227.71 C398.67,232.21 398.50,233.19 398.50,244.00 C398.50,254.72 398.68,255.81 401.20,260.01 C404.40,265.34 408.48,269.35 416.00,274.57 C423.17,279.55 429.35,281.08 439.96,280.52 C446.81,280.15 449.61,279.48 454.65,277.00 ZM 598.46 278.12 C605.65,274.94 609.20,271.88 612.29,266.20 C614.67,261.84 614.87,260.82 613.85,258.57 C612.80,256.26 612.97,255.65 615.33,253.18 C617.51,250.90 618.00,249.45 618.00,245.30 C618.00,235.07 611.77,221.18 605.69,217.83 C591.71,210.14 593.22,210.61 581.00,210.20 C571.16,209.88 568.70,210.12 563.92,211.92 C553.06,216.00 546.23,224.59 544.00,236.96 C541.23,252.34 547.90,267.42 560.42,274.07 C562.94,275.40 565.00,276.83 565.00,277.25 C565.00,277.66 565.81,278.00 566.80,278.00 C567.79,278.00 569.03,278.41 569.55,278.92 C572.50,281.76 591.40,281.24 598.46,278.12 ZM 664.75 277.42 C668.27,273.46 667.36,262.00 663.52,262.00 C662.69,262.00 662.00,261.55 662.00,261.00 C662.00,260.45 660.27,260.00 658.16,260.00 C652.87,260.00 652.00,257.67 652.00,243.49 C652.00,230.92 652.46,230.00 658.71,230.00 C660.28,230.00 662.56,229.30 663.78,228.44 C665.64,227.14 666.00,225.95 666.00,221.12 C666.00,216.26 665.62,215.03 663.56,213.24 C662.09,211.96 659.41,211.00 656.82,210.81 L 652.51 210.50 L 651.83 205.69 C651.12,200.70 649.42,197.62 647.89,198.57 C647.40,198.87 647.00,198.64 647.00,198.06 C647.00,197.38 643.22,197.00 636.50,197.00 L 626.00 197.00 L 626.00 203.94 L 626.00 210.88 L 622.25 211.19 L 618.50 211.50 L 618.21 219.25 C617.95,226.13 618.12,227.00 619.71,227.03 C620.69,227.05 622.51,227.91 623.75,228.94 C625.87,230.71 626.00,231.56 626.00,243.86 C626.00,259.46 627.14,265.50 630.94,270.11 C638.96,279.84 658.78,284.12 664.75,277.42 ZM 388.43 277.08 C390.00,275.34 390.16,272.36 390.05,245.33 L 389.93 215.50 L 387.47 213.21 C385.20,211.11 384.24,210.95 375.25,211.21 L 365.50 211.50 L 365.26 243.50 L 365.02 275.50 L 368.26 277.11 C370.28,278.12 374.36,278.78 379.10,278.86 C385.42,278.98 386.98,278.68 388.43,277.08 ZM 498.86 277.25 C500.57,275.81 500.97,274.23 501.12,268.41 C501.21,264.51 501.83,260.59 502.47,259.70 C503.51,258.29 504.28,258.74 508.64,263.29 C511.39,266.16 514.73,270.21 516.06,272.31 C517.40,274.40 520.02,276.77 521.87,277.56 C525.49,279.11 539.61,279.53 541.77,278.16 C546.12,275.40 542.25,267.95 527.75,251.18 C525.14,248.16 523.00,244.84 523.00,243.79 C523.00,242.75 525.69,239.41 528.97,236.37 C535.17,230.62 543.00,219.93 543.00,217.20 C543.00,216.34 542.02,214.59 540.83,213.31 C538.85,211.21 537.79,211.00 529.05,211.00 L 519.45 211.00 L 511.97 218.57 C507.86,222.73 503.83,226.51 503.00,226.97 C501.69,227.70 501.49,225.27 501.44,207.76 L 501.37 187.72 L 498.63 185.36 C496.15,183.22 494.95,183.00 485.94,183.00 L 476.00 183.00 L 476.00 229.50 C476.00,274.32 476.07,276.00 477.88,276.00 C478.91,276.00 480.32,276.67 481.00,277.50 C482.88,279.77 496.08,279.58 498.86,277.25 ZM 381.55 206.00 C382.86,206.00 385.52,204.60 387.47,202.90 C390.56,200.18 391.00,199.22 391.00,195.15 C390.99,190.69 388.02,183.79 386.26,184.15 C385.84,184.24 383.83,183.56 381.78,182.65 C377.25,180.64 373.98,180.56 369.64,182.38 C365.49,184.11 362.55,189.80 363.42,194.41 C364.37,199.47 374.32,207.82 377.83,206.50 C378.56,206.22 380.24,206.00 381.55,206.00 ZM 58.69 191.39 C59.91,191.06 61.32,189.52 61.89,187.90 C62.48,186.18 62.93,171.30 62.97,151.50 C63.02,133.07 63.44,116.97 63.92,115.71 C64.40,114.45 65.40,112.93 66.15,112.33 C69.38,109.73 83.04,107.13 104.50,105.01 C110.55,104.41 117.07,103.74 119.00,103.51 C137.07,101.37 178.60,102.13 203.50,105.05 C213.77,106.25 233.73,109.71 235.02,110.51 C235.57,110.85 236.70,112.45 237.53,114.06 C238.81,116.53 239.04,122.63 238.97,152.61 L 238.90 188.24 L 241.30 189.48 C247.33,192.61 255.86,192.16 258.23,188.60 C258.64,188.00 258.98,172.20 259.00,153.50 C259.02,134.80 259.39,118.93 259.84,118.23 C260.46,117.24 261.00,117.35 262.22,118.73 C264.18,120.95 264.78,133.32 263.61,147.77 C263.07,154.52 263.13,158.45 263.81,159.27 C264.37,159.94 264.76,160.92 264.66,161.43 C264.40,162.94 277.04,169.00 280.40,168.97 C285.17,168.92 286.96,166.91 288.03,160.37 C289.39,152.03 290.40,133.73 289.66,130.78 C289.31,129.41 287.11,126.48 284.77,124.28 C272.67,112.92 267.11,108.31 263.26,106.50 L 259.02 104.50 L 259.01 73.88 C259.01,57.03 258.72,41.73 258.37,39.88 C257.89,37.31 255.32,34.15 247.62,26.65 C242.05,21.24 236.31,16.19 234.85,15.43 C232.84,14.39 226.72,14.03 209.61,13.96 C197.18,13.91 186.61,14.12 186.12,14.42 C185.63,14.73 184.92,17.12 184.54,19.74 C182.94,30.82 174.49,41.96 163.58,47.36 C158.23,50.01 145.00,52.06 145.00,50.25 C145.00,49.71 143.23,49.03 141.07,48.74 C132.05,47.53 119.86,33.90 116.95,21.80 C114.94,13.42 114.98,13.43 87.15,14.00 L 62.92 14.50 L 52.46 25.09 L 42.00 35.68 L 42.00 72.84 C42.00,93.28 41.76,110.00 41.47,110.00 C41.18,110.00 39.32,109.32 37.35,108.50 C35.37,107.68 33.62,107.00 33.45,107.00 C32.79,107.00 12.46,126.21 11.72,127.53 C11.29,128.31 11.40,134.70 11.98,141.72 C12.55,148.75 13.14,156.52 13.28,159.00 C13.62,164.71 14.34,165.80 19.23,167.99 C22.40,169.41 23.97,169.58 26.86,168.79 C32.11,167.37 36.78,163.48 37.74,159.73 C38.19,157.95 38.14,149.22 37.63,140.33 C36.66,123.53 37.40,118.00 40.62,118.00 C41.74,118.00 42.02,121.46 42.10,136.25 C42.16,146.29 42.38,162.15 42.59,171.50 L 42.97 188.50 L 47.73 190.21 C52.87,192.05 55.26,192.31 58.69,191.39 ZM 363.00 177.89 C375.60,173.44 383.68,162.90 385.05,149.15 C386.87,130.91 380.05,117.52 365.60,110.97 C359.41,108.17 358.61,108.05 347.63,108.42 C338.15,108.74 336.04,108.54 335.57,107.32 C335.26,106.50 335.00,101.18 335.00,95.49 C335.00,85.30 334.96,85.11 332.25,83.32 C329.97,81.81 327.82,81.55 319.75,81.79 L 310.00 82.07 L 310.00 116.41 C310.00,145.15 310.26,151.46 311.58,155.12 C312.44,157.53 313.33,160.37 313.55,161.44 C314.15,164.33 320.54,170.43 326.16,173.49 C336.24,178.98 340.74,180.11 350.50,179.60 C355.45,179.34 361.08,178.58 363.00,177.89 ZM 427.77 178.48 C430.60,177.64 433.53,176.33 434.29,175.56 C435.48,174.38 436.31,174.46 439.95,176.09 C442.75,177.34 446.48,178.00 450.78,178.00 C461.56,178.00 461.00,179.84 461.00,144.38 C461.00,107.61 462.15,110.32 446.44,110.07 L 436.00 109.90 L 436.00 129.40 C436.00,140.95 435.57,149.85 434.95,151.22 C433.28,154.87 427.70,158.19 423.84,157.82 C421.17,157.56 420.15,156.80 418.75,154.00 C417.28,151.05 417.00,147.62 417.00,132.25 C417.00,109.92 417.25,110.38 405.26,110.10 C400.85,109.99 396.03,110.20 394.56,110.58 L 391.87 111.25 L 392.19 135.37 C392.49,158.81 392.57,159.63 394.95,164.00 C396.30,166.48 397.44,168.73 397.47,169.00 C397.69,170.84 400.23,172.67 407.31,176.09 C416.23,180.41 419.85,180.83 427.77,178.48 ZM 518.06 177.58 C523.95,175.46 529.55,170.81 532.03,165.94 C535.67,158.81 533.82,146.64 528.35,141.78 C527.28,140.83 523.50,138.75 519.95,137.14 C514.93,134.86 511.95,134.20 506.50,134.12 C502.65,134.06 499.35,133.56 499.17,133.01 C498.98,132.45 498.25,132.00 497.54,132.00 C496.83,132.00 495.67,131.31 494.98,130.47 C493.92,129.20 494.11,128.51 496.10,126.39 C499.01,123.29 501.53,123.60 508.91,127.95 C513.34,130.56 515.09,131.00 521.02,131.00 C527.23,131.00 528.12,130.75 529.52,128.61 C532.80,123.60 527.50,115.76 517.70,111.12 C512.08,108.46 510.45,108.17 500.39,108.06 C488.01,107.91 480.74,109.82 474.84,114.79 C468.74,119.92 466.42,129.28 469.45,136.53 C470.25,138.44 470.61,140.00 470.26,140.00 C469.91,140.00 470.86,141.29 472.37,142.87 C476.93,147.62 484.59,150.82 494.26,151.99 C499.08,152.58 504.08,153.46 505.38,153.95 C508.81,155.26 509.33,158.59 506.46,160.85 C503.05,163.54 496.55,162.34 492.03,158.19 C490.12,156.43 488.32,154.99 488.03,154.97 C487.74,154.96 482.89,154.85 477.25,154.72 L 467.00 154.50 L 467.00 157.80 C467.00,165.95 474.36,172.93 488.45,178.12 C494.70,180.42 510.94,180.12 518.06,177.58 ZM 79.62 174.82 C81.20,173.62 85.88,169.46 90.00,165.57 C94.13,161.68 105.38,151.45 115.00,142.83 C141.50,119.11 142.00,118.61 142.00,115.86 C142.00,112.40 140.21,111.00 135.78,111.00 C132.77,111.00 131.06,111.80 127.73,114.78 C125.40,116.85 120.80,120.78 117.50,123.50 C111.36,128.56 105.01,134.36 90.02,148.59 C85.33,153.04 79.74,158.21 77.60,160.09 C69.51,167.16 67.67,170.01 68.67,173.84 C69.61,177.43 75.47,177.95 79.62,174.82 ZM 82.66 143.12 C85.32,140.99 92.42,134.51 98.44,128.73 C109.21,118.37 109.36,118.17 107.79,115.85 C106.32,113.67 105.64,113.52 98.35,113.78 C87.19,114.19 80.13,115.81 75.39,119.07 C70.07,122.74 68.50,126.66 68.50,136.33 C68.50,142.93 68.81,144.39 70.44,145.58 C73.76,148.01 77.50,147.26 82.66,143.12 ZM 575.40 262.23 C574.79,261.83 573.73,260.41 573.02,259.08 C570.97,255.19 573.81,253.87 583.49,254.21 C590.68,254.47 591.50,254.70 591.50,256.46 C591.50,260.78 579.61,265.04 575.40,262.23 ZM 570.40 236.75 C571.43,230.97 575.13,228.24 582.45,227.86 C586.74,227.64 587.54,227.94 589.63,230.56 C590.93,232.18 591.99,234.51 592.00,235.75 C592.00,237.95 591.74,238.00 581.09,238.00 C572.91,238.00 570.23,237.69 570.40,236.75 ZM 343.00 159.23 C343.00,158.68 342.10,158.00 341.01,157.71 C339.91,157.42 338.70,156.36 338.33,155.34 C337.95,154.33 337.16,153.18 336.57,152.79 C335.97,152.39 335.50,148.86 335.50,144.79 C335.50,138.65 335.88,137.00 337.91,134.29 C340.60,130.71 344.49,129.00 349.98,129.00 C352.88,129.00 354.30,129.70 356.58,132.25 C359.23,135.20 359.50,136.16 359.50,142.68 C359.50,150.34 358.11,153.40 352.94,157.14 C350.06,159.21 343.00,160.70 343.00,159.23 Z" fill="rgb(254,254,253)"/>
</g>
</svg>